<svg width="479" height="479" viewBox="0 0 479 479" fill="none" xmlns="http://www.w3.org/2000/svg">
<mask id="path-1-inside-1_313_31" fill="white">
<path d="M239.054 64.0544C262.036 64.0544 284.792 68.581 306.024 77.3755C327.256 86.1701 346.548 99.0605 362.798 115.311C379.048 131.561 391.939 150.853 400.733 172.085C409.528 193.317 414.054 216.073 414.054 239.054C414.054 262.036 409.528 284.792 400.733 306.024C391.939 327.256 379.048 346.548 362.798 362.798C346.548 379.048 327.256 391.939 306.024 400.733C284.792 409.528 262.036 414.054 239.054 414.054L239.054 239.054L239.054 64.0544Z"/>
</mask>
<path d="M239.054 64.0544C262.036 64.0544 284.792 68.581 306.024 77.3755C327.256 86.1701 346.548 99.0605 362.798 115.311C379.048 131.561 391.939 150.853 400.733 172.085C409.528 193.317 414.054 216.073 414.054 239.054C414.054 262.036 409.528 284.792 400.733 306.024C391.939 327.256 379.048 346.548 362.798 362.798C346.548 379.048 327.256 391.939 306.024 400.733C284.792 409.528 262.036 414.054 239.054 414.054L239.054 239.054L239.054 64.0544Z" fill="#0153FF" stroke="black" stroke-width="4" mask="url(#path-1-inside-1_313_31)"/>
<mask id="path-2-inside-2_313_31" fill="white">
<path d="M239.45 414.054C216.468 414.106 193.702 409.631 172.45 400.884C151.198 392.138 131.877 379.291 115.591 363.077C99.3036 346.864 86.3697 327.601 77.5272 306.389C68.6847 285.177 64.1068 262.431 64.0549 239.45C64.003 216.468 68.4781 193.702 77.2247 172.45C85.9713 151.198 98.8181 131.877 115.032 115.591C131.245 99.3036 150.508 86.3697 171.72 77.5272C192.932 68.6847 215.678 64.1068 238.659 64.0549L239.054 239.054L239.45 414.054Z"/>
</mask>
<path d="M239.45 414.054C216.468 414.106 193.702 409.631 172.45 400.884C151.198 392.138 131.877 379.291 115.591 363.077C99.3036 346.864 86.3697 327.601 77.5272 306.389C68.6847 285.177 64.1068 262.431 64.0549 239.45C64.003 216.468 68.4781 193.702 77.2247 172.45C85.9713 151.198 98.8181 131.877 115.032 115.591C131.245 99.3036 150.508 86.3697 171.72 77.5272C192.932 68.6847 215.678 64.1068 238.659 64.0549L239.054 239.054L239.45 414.054Z" fill="#EE0000" stroke="black" stroke-width="4" mask="url(#path-2-inside-2_313_31)"/>
<circle cx="239.054" cy="239.054" r="150" fill="white" stroke="black" stroke-width="2"/>
</svg>
