<svg width="410" height="513" viewBox="0 0 410 513" fill="none" xmlns="http://www.w3.org/2000/svg">
<path d="M173.436 51.3514C180.236 -0.648605 184.094 7.83594 186.936 6.35139C209.936 -5.66406 220.936 15.8535 220.936 51.3514C254.935 227.852 353.936 254.851 382.436 292.351C410.936 329.851 429.936 375.851 353.936 467.351C277.936 558.851 209.936 479.351 173.436 447.851C10.4361 530.351 -13.5639 391.351 11.4361 310.851C36.4361 230.351 164.936 116.351 173.436 51.3514Z" fill="#0153FF" stroke="black" stroke-width="5"/>
<path d="M191.434 333.336C189.834 324.936 197.767 174.503 201.934 100.336V238.336C201.934 256.336 197.602 356.836 195.436 404.836C190.269 414.836 179.535 433.236 177.935 426.836C175.935 418.836 193.434 343.836 191.434 333.336Z" fill="#00236D"/>
<path d="M251.935 222.332C223.135 202.732 209.602 129.832 206.435 95.8324C205.435 66.4991 204.835 25.4324 210.435 95.8324C217.435 183.832 287.935 246.832 251.935 222.332Z" fill="#ACC6FF"/>
<path d="M157.935 222.332C181.535 211.13 191.769 142 193.935 108.836C191.935 90.0026 188.235 64.3359 189.435 112.336C190.935 172.336 128.435 236.336 157.935 222.332Z" fill="#ACC6FF"/>
<path d="M166.936 128.336C164.536 135.136 139.936 168.836 127.936 184.836C148.936 155.836 172.436 98.8359 180.436 82.8359C186.489 70.7281 169.936 119.836 166.936 128.336Z" fill="#ACC6FF"/>
<path d="M251.935 222.332C223.135 202.732 209.602 129.832 206.435 95.8324C205.435 66.4991 204.835 25.4324 210.435 95.8324C217.435 183.832 287.935 246.832 251.935 222.332Z" stroke="black"/>
<path d="M157.935 222.332C181.535 211.13 191.769 142 193.935 108.836C191.935 90.0026 188.235 64.3359 189.435 112.336C190.935 172.336 128.435 236.336 157.935 222.332Z" stroke="black"/>
<path d="M166.936 128.336C164.536 135.136 139.936 168.836 127.936 184.836C148.936 155.836 172.436 98.8359 180.436 82.8359C186.489 70.7281 169.936 119.836 166.936 128.336Z" stroke="black"/>
<path d="M98.9353 244.337C70.9353 261.137 52.602 311.003 46.9353 333.837C42.4353 330.837 37.4353 316.037 53.4353 280.837C73.4353 236.837 133.935 223.337 98.9353 244.337Z" fill="#ACC6FF"/>
<path d="M188.435 376.837C189.235 398.837 179.435 417.67 174.435 424.337L170.935 411.836C172.101 401.336 174.435 379.136 174.435 374.336C174.435 368.336 184.435 299.337 183.435 258.837C182.435 218.337 205.435 201.837 199.435 207.837C193.435 213.837 192.435 236.837 191.935 251.337C191.435 265.837 187.435 349.337 188.435 376.837Z" fill="#ACC6FF"/>
<path d="M367.935 370.836C379.935 319.636 348.268 284.836 330.935 273.836C340.268 289.003 358.935 328.636 358.935 365.836C358.935 403.036 342.935 417.336 334.935 419.836C340.935 424.836 355.935 422.036 367.935 370.836Z" fill="#ACC6FF"/>
<path d="M103.935 444.336C81.6013 442.169 33.6346 424.436 20.4346 370.836C3.93464 303.836 -0.0653687 468.836 103.935 444.336Z" fill="#ACC6FF"/>
<path d="M262.436 470.336C228.036 473.136 214.436 446.503 211.936 432.836C201.936 467.836 233.436 477.836 244.436 480.836C255.436 483.836 305.436 466.836 262.436 470.336Z" fill="#ACC6FF"/>
<path d="M98.9353 244.337C70.9353 261.137 52.602 311.003 46.9353 333.837C42.4353 330.837 37.4353 316.037 53.4353 280.837C73.4353 236.837 133.935 223.337 98.9353 244.337Z" stroke="black"/>
<path d="M188.435 376.837C189.235 398.837 179.435 417.67 174.435 424.337L170.935 411.836C172.101 401.336 174.435 379.136 174.435 374.336C174.435 368.336 184.435 299.337 183.435 258.837C182.435 218.337 205.435 201.837 199.435 207.837C193.435 213.837 192.435 236.837 191.935 251.337C191.435 265.837 187.435 349.337 188.435 376.837Z" stroke="black"/>
<path d="M367.935 370.836C379.935 319.636 348.268 284.836 330.935 273.836C340.268 289.003 358.935 328.636 358.935 365.836C358.935 403.036 342.935 417.336 334.935 419.836C340.935 424.836 355.935 422.036 367.935 370.836Z" stroke="black"/>
<path d="M103.935 444.336C81.6013 442.169 33.6346 424.436 20.4346 370.836C3.93464 303.836 -0.0653687 468.836 103.935 444.336Z" stroke="black"/>
<path d="M262.436 470.336C228.036 473.136 214.436 446.503 211.936 432.836C201.936 467.836 233.436 477.836 244.436 480.836C255.436 483.836 305.436 466.836 262.436 470.336Z" stroke="black"/>
<path d="M200.435 36.8359V91.8359C200.435 99.3359 179.435 66.8359 200.435 36.8359Z" fill="#ACC6FF"/>
<path fill-rule="evenodd" clip-rule="evenodd" d="M140.558 412.78L125.085 340.423L125.129 340.503L176.681 314.439L165.018 309.636L123.034 330.84L114.011 288.63L83.4238 276.034L97.8691 343.589L97.8666 343.582L41.5797 372.019L53.2424 376.822L99.9298 353.222L109.971 400.184L140.558 412.78ZM105.766 295.527L127.458 397.093L118.216 393.287L96.4798 291.703L105.766 295.527Z" fill="white"/>
</svg>
